# xmcd CD database file
#
# Track frame offsets:
#	150
#	12972
#	26262
#	38700
#	51122
#	64815
#	76712
#	90292
#	103752
#	117427
#	130122
#	142810
#	154622
#
# Disc length: 2244 seconds
#
# Revision: 1
# Processed by: cddbd v1.5.2PL0 Copyright (c) Steve Scherf et al.
# Submitted via: CDex 1.51
#
DISCID=9208c20d
DTITLE=Various Artist - Living The Blues - Collection [CD1]
DYEAR=1999
DGENRE=Blues
TTITLE0=Willie Mae Big Mama Thornton - Hound Dog
TTITLE1=Elmore James - Dust My Broom
TTITLE2=Howlin' Wolf - Spoonful
TTITLE3=Muddy Waters - You Shook Me
TTITLE4=T-Bone Walker - Call It Stormy Monday But Tuesday Is Just As Bad
TTITLE5=Little Junior Parker - Driving Wheel
TTITLE6=B. B. King - Rock Me Baby
TTITLE7=Bobby "Blue" Bland - Farther Up The Road
TTITLE8=Guitar Slim - The Things That I Used To Do
TTITLE9=Etta James - Something's Got A Hold On Me
TTITLE10=Albert King - Born Under a Bad Sign
TTITLE11=Freddie King - Hide Away
TTITLE12=Chuck Berry - Wee Wee Hours
EXTD=YEAR: 1999
EXTT0=
EXTT1=
EXTT2=
EXTT3=
EXTT4=
EXTT5=
EXTT6=
EXTT7=
EXTT8=
EXTT9=
EXTT10=
EXTT11=
EXTT12=
PLAYORDER=
